HIERARCHY
ROOT Hips
{
	OFFSET 0.000000 0.000000 0.000000
	CHANNELS 6 Xposition Yposition Zposition Zrotation Yrotation Xrotation 
	JOINT LeftUpLeg_virtual
	{
		OFFSET 0.000000 0.000000 0.000000
		CHANNELS 3 Zrotation Yrotation Xrotation
		JOINT LeftUpLeg
		{
			OFFSET 8.479694 -4.795517 -0.379053
			CHANNELS 3 Zrotation Yrotation Xrotation
			JOINT LeftLeg
			{
				OFFSET 0.485052 -32.551468 0.112863
				CHANNELS 3 Zrotation Yrotation Xrotation
				JOINT LeftFoot
				{
					OFFSET 0.438033 -32.635670 -3.012641
					CHANNELS 3 Zrotation Yrotation Xrotation
					JOINT LeftToeBase
					{
						OFFSET 0.970169 -13.225353 11.864223
						CHANNELS 3 Zrotation Yrotation Xrotation
						End Site
						{
							OFFSET 0.000000 0.000000 0.000000
						}
					}
				}
			}
		}
	}
	JOINT RightUpLeg_virtual
	{
		OFFSET 0.000000 0.000000 0.000000
		CHANNELS 3 Zrotation Yrotation Xrotation
		JOINT RightUpLeg
		{
			OFFSET -8.479694 -4.795517 -0.379053
			CHANNELS 3 Zrotation Yrotation Xrotation
			JOINT RightLeg
			{
				OFFSET -0.484100 -32.551483 0.112903
				CHANNELS 3 Zrotation Yrotation Xrotation
				JOINT RightFoot
				{
					OFFSET -0.438985 -32.635651 -3.012681
					CHANNELS 3 Zrotation Yrotation Xrotation
					JOINT RightToeBase
					{
						OFFSET -0.970169 -13.225354 11.864223
						CHANNELS 3 Zrotation Yrotation Xrotation
						End Site
						{
							OFFSET 0.000000 0.000000 0.000000
						}
					}
				}
			}
		}
	}
	JOINT Spine_virtual
	{
		OFFSET 0.000000 0.000000 0.000000
		CHANNELS 3 Zrotation Yrotation Xrotation
		JOINT Spine
		{
			OFFSET 0.000000 7.722015 1.166203
			CHANNELS 3 Zrotation Yrotation Xrotation
			JOINT Spine1
			{
				OFFSET 0.000000 12.024086 0.248766
				CHANNELS 3 Zrotation Yrotation Xrotation
				JOINT Spine2
				{
					OFFSET -0.000000 11.503036 -0.491240
					CHANNELS 3 Zrotation Yrotation Xrotation
					JOINT Neck_virtual
					{
						OFFSET 0.000000 0.000000 0.000000
						CHANNELS 3 Zrotation Yrotation Xrotation
						JOINT Neck
						{
							OFFSET 0.000000 18.430687 -3.123054
							CHANNELS 3 Zrotation Yrotation Xrotation
							JOINT Head
							{
								OFFSET -0.000000 9.051071 1.034021
								CHANNELS 3 Zrotation Yrotation Xrotation
								End Site
								{
									OFFSET 0.000000 0.000000 0.000000
								}
							}
						}
					}
					JOINT LeftShoulder_virtual
					{
						OFFSET 0.000000 0.000000 0.000000
						CHANNELS 3 Zrotation Yrotation Xrotation
						JOINT LeftShoulder
						{
							OFFSET 6.197824 13.665230 -4.064723
							CHANNELS 3 Zrotation Yrotation Xrotation
							JOINT LeftArm
							{
								OFFSET 7.778132 -0.187073 -1.709282
								CHANNELS 3 Zrotation Yrotation Xrotation
								JOINT LeftForeArm
								{
									OFFSET 21.954697 0.000000 -2.041093
									CHANNELS 3 Zrotation Yrotation Xrotation
									JOINT LeftHand
									{
										OFFSET 22.992908 0.000000 -0.870901
										CHANNELS 3 Zrotation Yrotation Xrotation
										End Site
										{
											OFFSET 0.000000 0.000000 0.000000
										}
									}
								}
							}
						}
					}
					JOINT RightShoulder_virtual
					{
						OFFSET 0.000000 0.000000 0.000000
						CHANNELS 3 Zrotation Yrotation Xrotation
						JOINT RightShoulder
						{
							OFFSET -6.197824 13.665230 -4.064723
							CHANNELS 3 Zrotation Yrotation Xrotation
							JOINT RightArm
							{
								OFFSET -7.778132 -0.187073 -1.709282
								CHANNELS 3 Zrotation Yrotation Xrotation
								JOINT RightForeArm
								{
									OFFSET -21.954697 0.000000 -2.041093
									CHANNELS 3 Zrotation Yrotation Xrotation
									JOINT RightHand
									{
										OFFSET -22.992908 0.000000 -0.870901
										CHANNELS 3 Zrotation Yrotation Xrotation
										End Site
										{
											OFFSET 0.000000 0.000000 0.000000
										}
									}
								}
							}
						}
					}
				}
			}
		}
	}
}
MOTION
Frames: 7
Frame Time: 0.033333
-67.330200 81.248589 -38.035027 -179.898017 -9.516780 179.979870 -2.576449 -2.864459 10.520538 -0.482525 4.723727 -28.893722 6.951746 0.509533 31.596400 -11.438391 -9.851349 -7.138193 0.000000 0.000000 0.000000 -0.247633 -3.598300 12.472067 -2.262512 -1.931134 -28.035440 -0.936596 5.077730 31.900115 10.735838 1.645694 -5.849452 0.000000 0.000000 0.000000 3.879211 0.682258 -5.741805 0.309730 1.274339 -2.267484 -0.800381 -2.540542 8.455229 0.003062 0.015898 -0.042671 -1.294613 -1.390828 9.381074 -0.268897 -4.448686 -5.372558 0.000000 0.000000 0.000000 0.598915 -0.784095 6.661223 -7.656318 0.171368 4.537192 -65.134678 -2.429638 15.767673 4.405467 -32.970751 5.919275 0.000000 0.000000 0.000000 -3.814501 0.784546 5.940250 25.618392 -1.941180 5.241116 56.965311 0.552618 13.885842 -2.355770 23.511487 -1.785102 0.000000 0.000000 0.000000 
-67.432037 81.258583 -38.081955 -179.947658 -9.559841 179.999882 -2.672982 -2.962221 10.520179 -0.645773 4.828245 -28.895996 6.742897 0.499404 31.916641 -11.887889 -10.299051 -7.231941 0.000000 0.000000 0.000000 -0.377577 -3.652958 12.452174 -2.063339 -2.272220 -28.023153 -0.971967 4.742313 32.184555 10.468184 1.428034 -6.050467 0.000000 0.000000 0.000000 3.888338 0.675935 -5.714211 0.266380 1.268701 -2.284116 -0.807821 -2.534165 8.506467 0.049603 0.016071 -0.028859 -1.296046 -1.305707 9.347842 -0.191585 -4.553565 -5.358264 0.000000 0.000000 0.000000 0.559404 -0.817195 6.623225 -7.709520 0.163494 4.547819 -65.189012 -2.484931 15.711780 4.380455 -33.052102 5.902297 0.000000 0.000000 0.000000 -3.814324 0.772554 5.875889 25.597683 -1.928814 5.239106 56.916817 0.617926 13.706832 -2.361397 23.489803 -1.720210 0.000000 0.000000 0.000000 
-67.592293 81.260422 -38.077526 -179.965745 -9.495185 179.977520 -2.729412 -2.996267 10.481846 -0.840517 5.158359 -28.886803 6.762219 0.481028 32.007827 -11.926256 -10.288385 -7.264161 0.000000 0.000000 0.000000 -0.368538 -3.608133 12.392216 -2.206203 -2.130040 -27.904967 -0.999487 4.847329 32.100933 10.428468 1.460148 -6.051694 0.000000 0.000000 0.000000 3.920204 0.681749 -5.626590 0.256140 1.253358 -2.268840 -0.814999 -2.559403 8.475204 0.006123 -0.032509 0.014997 -1.237837 -1.192653 9.302427 -0.142585 -4.622505 -5.402182 0.000000 0.000000 0.000000 0.666593 -0.770115 6.501212 -7.805582 0.270476 4.541023 -65.354815 -2.489290 15.808512 4.463811 -33.203189 5.817045 0.000000 0.000000 0.000000 -3.707400 0.816205 5.907408 25.548405 -1.813708 5.189837 56.823315 0.709219 13.555454 -2.396757 23.405909 -1.735453 0.000000 0.000000 0.000000 
-67.821136 81.268059 -38.037834 -179.959502 -9.684343 179.994732 -2.737669 -3.011213 10.418996 -0.934904 5.063114 -28.863703 6.745776 0.664565 32.052801 -11.903877 -10.279091 -7.194024 0.000000 0.000000 0.000000 -0.555567 -3.575607 12.364368 -2.240400 -1.907365 -27.709946 -1.038840 4.855333 31.866316 10.290588 1.321575 -5.926347 0.000000 0.000000 0.000000 3.975891 0.658284 -5.530740 0.255115 1.289625 -2.293783 -0.798881 -2.519568 8.408873 -0.014122 -0.011676 -0.009135 -1.216071 -1.178640 9.380633 0.006581 -4.741765 -5.441392 0.000000 0.000000 0.000000 0.686946 -0.750001 6.682091 -7.833640 0.170234 4.428565 -65.507846 -2.586941 16.015868 4.536668 -33.333027 5.761632 0.000000 0.000000 0.000000 -3.734119 0.828361 5.942851 25.686764 -1.847352 5.208392 56.694959 0.679726 13.390730 -2.533612 23.333630 -1.504239 0.000000 0.000000 0.000000 
-68.102066 81.278137 -37.975185 -179.907388 -9.772472 179.973463 -2.701468 -2.913033 10.401520 -1.079372 5.032954 -28.885748 6.718212 0.803044 31.964630 -11.861791 -10.275018 -7.119274 0.000000 0.000000 0.000000 -0.312193 -3.584165 12.347668 -2.695824 -1.687749 -27.623051 -1.209050 4.828286 31.741651 10.443930 1.473669 -5.901224 0.000000 0.000000 0.000000 4.076229 0.608060 -5.397592 0.267351 1.236454 -2.354137 -0.778973 -2.503321 8.477884 -0.033900 0.019997 0.022465 -1.225389 -1.347458 9.301319 0.125994 -4.787271 -5.525977 0.000000 0.000000 0.000000 0.668811 -0.735630 6.604941 -7.876028 0.245887 4.416503 -65.717744 -2.673363 16.349342 4.803853 -33.320415 5.474131 0.000000 0.000000 0.000000 -3.709418 0.757752 5.912980 25.582931 -1.690375 5.148586 56.754716 0.640624 13.277890 -2.634618 23.115923 -1.529185 0.000000 0.000000 0.000000 
-68.404213 81.290031 -37.907673 -179.916267 -9.955784 179.984214 -2.681727 -2.933664 10.470741 -1.309762 4.974499 -28.903895 6.721006 1.016189 31.831892 -11.772970 -10.257240 -7.000042 0.000000 0.000000 0.000000 -0.362970 -3.706002 12.414387 -2.940356 -1.498086 -27.568646 -1.253143 4.854284 31.471910 10.464383 1.544218 -5.769354 0.000000 0.000000 0.000000 4.158400 0.453044 -5.249400 0.259889 1.250234 -2.408887 -0.781592 -2.485988 8.491558 -0.011245 -0.019804 0.030879 -1.191648 -1.150816 9.329874 0.369732 -5.005951 -5.615721 0.000000 0.000000 0.000000 0.716631 -0.644113 6.657462 -7.982280 0.283341 4.230077 -65.856383 -2.697554 16.556969 4.893420 -33.360809 5.428065 0.000000 0.000000 0.000000 -3.695493 0.894173 5.909999 25.558442 -1.659450 5.142413 56.787060 0.579055 13.311140 -2.843261 22.870229 -1.485500 0.000000 0.000000 0.000000 
-68.746872 81.296906 -37.842445 -179.946689 -10.150250 179.976933 -2.654844 -3.060924 10.548398 -1.625977 4.885489 -28.961546 6.779111 1.244283 31.736385 -11.620413 -10.190251 -6.954306 0.000000 0.000000 0.000000 -0.357255 -3.875118 12.511834 -3.238986 -1.486003 -27.600380 -1.232120 5.120548 31.270676 10.438239 1.621284 -5.645327 0.000000 0.000000 0.000000 4.195310 0.305162 -5.080274 0.233332 1.238255 -2.434990 -0.707594 -2.471100 8.513885 0.003482 -0.034309 -0.009115 -1.169702 -1.203549 9.465718 0.630772 -5.178597 -5.707528 0.000000 0.000000 0.000000 0.765857 -0.725321 6.743639 -8.162347 0.271400 4.105429 -65.934302 -2.650707 16.721445 5.095241 -33.432273 5.431713 0.000000 0.000000 0.000000 -3.671766 0.845347 6.056472 25.458468 -1.548801 5.116373 56.808790 0.640893 13.393267 -2.977673 22.652512 -1.429131 0.000000 0.000000 0.000000 
